<svg width="920" height="920" viewBox="0 0 920 920" fill="none" xmlns="http://www.w3.org/2000/svg">
  <rect width="920" height="920" rx="120" fill="white"/>
  <rect x="70" y="70" width="780" height="780" rx="96" fill="#F0FDFA" stroke="#0F766E" stroke-width="14"/>
  <g transform="translate(150,170)">
    <path d="M40 220C95 124 195 70 310 70C425 70 525 124 580 220C525 316 425 370 310 370C195 370 95 316 40 220Z" fill="white" stroke="#0F766E" stroke-width="14"/>
    <circle cx="310" cy="220" r="88" fill="#06B6D4"/>
    <circle cx="310" cy="220" r="34" fill="#0F172A"/>
    <circle cx="432" cy="160" r="14" fill="#14B8A6"/>
    <circle cx="472" cy="220" r="12" fill="#14B8A6"/>
    <circle cx="432" cy="280" r="14" fill="#14B8A6"/>
    <line x1="392" y1="192" x2="423" y2="168" stroke="#14B8A6" stroke-width="7" stroke-linecap="round"/>
    <line x1="400" y1="220" x2="454" y2="220" stroke="#14B8A6" stroke-width="7" stroke-linecap="round"/>
    <line x1="392" y1="247" x2="423" y2="272" stroke="#14B8A6" stroke-width="7" stroke-linecap="round"/>
  </g>
  <text x="460" y="740" text-anchor="middle" font-family="Inter, Segoe UI, Arial, sans-serif" font-size="84" font-weight="800" fill="#0F172A">Retina<tspan fill="#0F766E">XAI</tspan></text>
</svg>
